HIERARCHY
ROOT hip
{
	OFFSET 0.000000 0.000000 0.000000 
	CHANNELS 6 Xposition Yposition Zposition Xrotation Zrotation Yrotation
	JOINT abdomen
	{
		OFFSET 0.000000 3.402643 0.000000 
		CHANNELS 3 Xrotation Zrotation Yrotation
		JOINT chest
		{
			OFFSET 0.000000 8.438565 -0.680529 
			CHANNELS 3 Xrotation Zrotation Yrotation
			JOINT neck
			{
				OFFSET 0.000000 10.207942 -0.272212 
				CHANNELS 3 Xrotation Zrotation Yrotation
				JOINT head
				{
					OFFSET 0.000000 3.130431 0.000000 
					CHANNELS 3 Xrotation Zrotation Yrotation
					End Site
					{
						OFFSET 0.000000 3.130435 0.000000 
					}
				}
			}
			JOINT lCollar
			{
				OFFSET 3.470700 6.669187 -0.816635 
				CHANNELS 3 Yrotation Zrotation Xrotation
				JOINT lShldr
				{
					OFFSET 3.198488 0.000000 0.000000 
					CHANNELS 3 Zrotation Yrotation Xrotation
					JOINT lForeArm
					{
						OFFSET 10.139888 0.000000 0.000000 
						CHANNELS 3 Yrotation Zrotation Xrotation
						JOINT lHand
						{
							OFFSET 8.370511 0.000000 0.000000 
							CHANNELS 3 Zrotation Yrotation Xrotation
							End Site
							{
								OFFSET 4.083176 0.000000 0.000000 
							}
						}
					}
				}
			}
			JOINT rCollar
			{
				OFFSET -3.470700 6.669187 -0.816635 
				CHANNELS 3 Yrotation Zrotation Xrotation
				JOINT rShldr
				{
					OFFSET -3.198488 0.000000 0.000000 
					CHANNELS 3 Zrotation Yrotation Xrotation
					JOINT rForeArm
					{
						OFFSET -10.139888 0.000000 0.000000 
						CHANNELS 3 Yrotation Zrotation Xrotation
						JOINT rHand
						{
							OFFSET -8.370511 0.000000 0.000000 
							CHANNELS 3 Zrotation Yrotation Xrotation
							End Site
							{
								OFFSET -4.083176 0.000000 0.000000 
							}
						}
					}
				}
			}
		}
	}
	JOINT lThigh
	{
		OFFSET 5.308129 -1.633274 1.361059 
		CHANNELS 3 Xrotation Zrotation Yrotation
		JOINT lShin
		{
			OFFSET -2.041588 -20.007561 0.000000 
			CHANNELS 3 Xrotation Zrotation Yrotation
			JOINT lFoot
			{
				OFFSET 0.000000 -19.190928 -1.224953 
				CHANNELS 3 Xrotation Yrotation Zrotation
				End Site
				{
					OFFSET 0.000000 -2.449906 4.627600 
				}
			}
		}
	}
	JOINT rThigh
	{
		OFFSET -5.308129 -1.633274 1.361059 
		CHANNELS 3 Xrotation Zrotation Yrotation
		JOINT rShin
		{
			OFFSET 2.041588 -20.007561 0.000000 
			CHANNELS 3 Xrotation Zrotation Yrotation
			JOINT rFoot
			{
				OFFSET 0.000000 -19.190928 -1.224953 
				CHANNELS 3 Xrotation Yrotation Zrotation
				End Site
				{
					OFFSET 0.000000 -2.449906 4.627600 
				}
			}
		}
	}
}
MOTION
Frames: 13
Frame Time: 0.016667
0.087537 44.723644 -0.568495 0.742710 -2.148260 -2.782090 -21.952801 0.977180 0.743101 16.844000 1.734640 0.463683 15.849300 0.787441 -1.044900 12.410000 4.571930 0.011936 2.000000 -2.000000 0.000000 89.723701 167.113007 -5.655500 41.133202 -0.317821 0.089991 0.045494 -0.016598 -142.858994 -2.000000 2.000000 0.000000 81.920303 -7.623350 -164.979004 -31.660500 0.331218 0.071763 -0.062507 0.050355 -155.212997 -6.068111 3.042865 -4.689421 25.265236 3.685818 1.693242 -23.063339 10.726985 4.950989 4.287918 0.329720 2.386513 3.723311 -4.289175 -0.125859 -15.569667 -8.990064 -2.775055 
0.091000 44.724678 -0.574003 0.752487 -2.158020 -2.792360 -21.952900 0.986237 0.739452 16.853800 1.734650 0.463978 15.838900 0.778928 -1.038580 12.419800 4.571800 0.012715 2.000000 -2.000000 0.000000 89.723701 167.171997 -5.684660 41.201599 -0.317714 0.090114 0.045444 -0.016108 -142.682999 -2.000000 2.000000 0.000000 81.890999 -7.584420 -164.919998 -31.650700 0.331230 0.071743 -0.062542 0.050459 -155.251999 -6.040530 3.059279 -4.710146 25.208302 3.669131 1.690080 -23.055216 10.721451 4.946168 4.267247 0.339848 2.385881 3.745809 -4.295504 -0.125715 -15.565778 -8.996466 -2.777280 
0.092402 44.724926 -0.585385 0.732956 -2.187320 -2.743170 -21.943300 0.988480 0.717621 16.824499 1.734600 0.453326 15.928800 0.878326 -1.031520 12.469400 4.619420 0.023756 2.000000 -2.000000 0.000000 89.753098 167.201004 -5.626000 41.240700 -0.317653 0.090184 0.045475 -0.016407 -142.791000 -2.000000 2.000000 0.000000 81.871399 -7.545470 -164.871002 -31.631201 0.331254 0.071704 -0.062559 0.050511 -155.270996 -6.092668 3.075218 -4.658379 25.291525 3.707179 1.687313 -23.009491 10.664225 4.894105 4.287546 0.368738 2.341188 3.717877 -4.292886 -0.106028 -15.546303 -9.013613 -2.773797 
0.093803 44.725182 -0.596765 0.703647 -2.206870 -2.703230 -21.933599 0.981666 0.699439 16.795200 1.724790 0.443313 16.009600 0.986557 -1.032080 12.528800 4.657220 0.024467 2.000000 -2.000000 0.000000 89.792099 167.240005 -5.577080 41.270000 -0.317607 0.090236 0.045509 -0.016734 -142.908005 -2.000000 2.000000 0.000000 81.842102 -7.506520 -164.822998 -31.611700 0.331279 0.071664 -0.062576 0.050563 -155.291000 -6.109172 3.125831 -4.637887 25.314413 3.686964 1.693160 -22.993809 10.577624 4.858983 4.307622 0.391756 2.305681 3.738659 -4.301726 -0.125615 -15.540603 -9.000670 -2.778109 
0.096762 44.725567 -0.606106 0.703647 -2.206870 -2.664170 -21.953300 0.980351 0.667977 16.736500 1.734420 0.431134 16.048599 0.985672 -1.028990 12.538600 4.657080 0.015495 2.000000 -2.000000 0.000000 89.801903 167.220001 -5.586890 41.348099 -0.317483 0.090376 0.045475 -0.016407 -142.791000 -2.000000 2.000000 0.000000 81.812698 -7.516400 -164.774002 -31.601900 0.331291 0.071644 -0.062602 0.050640 -155.320007 -6.130747 3.126123 -4.636741 25.316078 3.677627 1.700840 -22.963808 10.550348 4.838158 4.310030 0.391426 2.276331 3.717792 -4.293956 -0.125615 -15.545726 -8.988523 -2.782146 
0.099723 44.726086 -0.615448 0.713420 -2.206860 -2.625490 -21.982700 0.973362 0.649365 16.687599 1.753810 0.418574 16.088200 0.993494 -1.032930 12.558300 4.666460 0.018525 2.000000 -2.000000 0.000000 89.801903 167.210999 -5.606450 41.416401 -0.317376 0.090499 0.045441 -0.016081 -142.673996 -2.000000 2.000000 0.000000 81.773697 -7.526260 -164.735001 -31.582399 0.331316 0.071604 -0.062637 0.050744 -155.358994 -6.163949 3.126839 -4.645283 25.325941 3.677662 1.700749 -22.947206 10.535931 4.837742 4.293148 0.395127 2.236068 3.727906 -4.298121 -0.125643 -15.565087 -8.975258 -2.776743 
0.105725 44.727634 -0.622196 0.732956 -2.187320 -2.606450 -21.982800 0.963076 0.621934 16.687599 1.753810 0.399043 16.078501 1.003100 -1.031000 12.558300 4.666460 0.018525 2.000000 -2.000000 0.000000 89.811699 167.268997 -5.645370 41.308998 -0.317545 0.090307 0.045475 -0.016407 -142.791000 -2.000000 2.000000 0.000000 81.705299 -7.555670 -164.686005 -31.680000 0.331193 0.071803 -0.062688 0.050900 -155.417999 -6.136727 3.118079 -4.656313 25.249401 3.660017 1.697514 -22.902269 10.539227 4.835448 4.248422 0.378897 2.201583 3.746012 -4.294826 -0.115907 -15.585993 -8.978031 -2.781547 
0.111730 44.729172 -0.628943 0.752496 -2.177550 -2.577770 -21.982901 0.952789 0.594502 16.687599 1.763550 0.388619 16.068800 1.003320 -1.031770 12.568200 4.675980 0.020766 2.000000 -2.000000 0.000000 89.821503 167.328003 -5.684300 41.201599 -0.317714 0.090114 0.045509 -0.016734 -142.908005 -2.000000 2.000000 0.000000 81.636902 -7.575310 -164.636993 -31.767900 0.331083 0.071981 -0.062732 0.051029 -155.466995 -6.180710 3.096529 -4.663865 25.258591 3.665002 1.698552 -22.892384 10.541347 4.824316 4.281351 0.354479 2.191847 3.673358 -4.267775 -0.125672 -15.575053 -8.966241 -2.805729 
0.117871 44.730331 -0.635549 0.752492 -2.167780 -2.577640 -21.992701 0.945888 0.576106 16.668100 1.763510 0.378252 16.058399 0.985450 -1.028220 12.558300 4.666460 0.028291 2.000000 -2.000000 0.000000 89.831299 167.376999 -5.713480 41.123501 -0.317837 0.089974 0.045543 -0.017060 -143.024994 -2.000000 2.000000 0.000000 81.588097 -7.585120 -164.617996 -31.816700 0.331022 0.072080 -0.062776 0.051159 -155.514999 -6.208353 3.081793 -4.652947 25.288343 3.663868 1.698087 -22.867378 10.548162 4.824771 4.244465 0.340669 2.177832 3.720192 -4.291878 -0.125404 -15.578615 -9.005043 -2.806228 
0.124014 44.731361 -0.642156 0.762259 -2.158010 -2.568110 -22.002600 0.938987 0.557711 16.638800 1.753710 0.368252 16.047300 0.958863 -1.017650 12.558200 4.656810 0.026846 2.000000 -2.000000 0.000000 89.841103 167.425995 -5.742670 41.045300 -0.317959 0.089833 0.045578 -0.017386 -143.141998 -2.000000 2.000000 0.000000 81.549004 -7.594950 -164.587997 -31.855801 0.330972 0.072160 -0.062810 0.051263 -155.554993 -6.227592 3.061896 -4.642335 25.307684 3.666771 1.698607 -22.850296 10.538798 4.816308 4.225095 0.331360 2.185270 3.720731 -4.291413 -0.126087 -15.565320 -9.015776 -2.787863 
0.128894 44.731743 -0.649767 0.752506 -2.197080 -2.607330 -22.002600 0.948041 0.554053 16.629000 1.743940 0.368621 16.026400 0.913719 -1.013210 12.548100 4.637630 0.032933 2.000000 -2.000000 0.000000 89.870399 167.475006 -5.713260 41.045300 -0.317959 0.089833 0.045593 -0.017522 -143.190994 -2.000000 2.000000 0.000000 81.539200 -7.565520 -164.647003 -31.816700 0.331022 0.072080 -0.062758 0.051107 -155.496002 -6.243594 3.108299 -4.592531 25.347982 3.660538 1.696963 -22.850143 10.516965 4.802554 4.200643 0.361472 2.206039 3.738595 -4.301285 -0.115831 -15.539309 -9.021325 -2.789472 
0.133774 44.732128 -0.657381 0.752521 -2.226370 -2.637010 -21.992901 0.957140 0.550506 16.619301 1.734180 0.368994 16.015900 0.877064 -1.015030 12.537900 4.608800 0.037585 2.000000 -2.000000 0.000000 89.899696 167.514008 -5.683870 41.045300 -0.317959 0.089833 0.045608 -0.017658 -143.240005 -2.000000 2.000000 0.000000 81.519699 -7.536090 -164.705002 -31.767900 0.331083 0.071981 -0.062706 0.050952 -155.436996 -6.264647 3.141695 -4.532530 25.396051 3.669847 1.698625 -22.851294 10.506508 4.818415 4.203146 0.396618 2.248977 3.736158 -4.291454 -0.135436 -15.520952 -9.014335 -2.783710 
0.137489 44.732521 -0.663760 0.772083 -2.255650 -2.657700 -21.993000 0.966195 0.546849 16.609501 1.724420 0.369370 16.044399 0.839549 -1.013990 12.557300 4.598860 0.037710 2.000000 -2.000000 0.000000 89.899696 167.542999 -5.664270 41.113701 -0.317852 0.089956 0.045593 -0.017522 -143.190994 -2.000000 2.000000 0.000000 81.509903 -7.497050 -164.695999 -31.699600 0.331169 0.071843 -0.062680 0.050874 -155.408005 -6.294902 3.168608 -4.530903 25.405760 3.668083 1.688388 -22.871370 10.513818 4.815856 4.189592 0.414013 2.269317 3.718571 -4.292784 -0.115757 -15.484945 -9.039869 -2.782792 
